<?xml version="1.0"?>
<svg xmlns="http://www.w3.org/2000/svg" xmlns:xlink="http://www.w3.org/1999/xlink" id="Capa_1" style="enable-background:new 0 0 42.054 42.054;" viewBox="0 0 42.054 42.054" x="0px" y="0px" width="512px" height="512px" version="1.1" xml:space="preserve"><g><g>
	<path class="active-path" d="M 42.054 21.168 c 0 10.001 -6.987 18.354 -16.344 20.485 V 24.185 h 5.053 v -5.833 h -5.104 V 17.05 c 0 -2.5 1.094 -4.532 3.697 -4.532 c 1.043 0 1.877 0.157 2.555 0.365 l 0.311 -6.094 c -1.094 -0.312 -2.445 -0.522 -4.217 -0.522 c -2.291 0 -5.053 0.68 -7.031 2.554 c -2.293 2.084 -3.23 5.469 -3.23 8.541 v 0.989 H 14.41 v 5.833 h 3.333 v 17.729 C 7.694 40.334 0 31.661 0 21.168 C 0 9.555 9.415 0.14 21.028 0.14 C 32.641 0.139 42.054 9.554 42.054 21.168 Z" data-original="#000000" data-old_color="#dbc0da" fill="#dbc0da"/>
</g></g> </svg>
