<?xml version="1.0"?>
<svg xmlns="http://www.w3.org/2000/svg" xmlns:xlink="http://www.w3.org/1999/xlink" class="" id="Capa_1" style="enable-background:new 0 0 35.318 35.318;" viewBox="0 0 35.318 35.318" x="0px" y="0px" width="512px" height="512px" version="1.1" xml:space="preserve"><g><g>
	<path class="active-path" d="M 23.71 34.689 c -0.172 0.062 -0.345 0.137 -0.522 0.168 c -0.678 0.121 -1.112 -0.229 -1.116 -0.922 c -0.009 -1.287 -0.009 -2.572 0.012 -3.859 c 0.022 -1.48 -0.012 -2.941 -1.139 -4.162 c 0.67 -0.12 1.266 -0.204 1.849 -0.338 c 3.862 -0.887 5.868 -3.323 6.124 -7.366 c 0.131 -2.058 -0.236 -3.946 -1.604 -5.567 c -0.099 -0.114 -0.104 -0.373 -0.057 -0.539 c 0.364 -1.34 0.258 -2.649 -0.166 -3.959 c -0.105 -0.327 -0.279 -0.428 -0.602 -0.407 c -1.134 0.063 -2.173 0.461 -3.089 1.073 c -0.883 0.593 -1.705 0.722 -2.754 0.482 c -2.31 -0.521 -4.635 -0.369 -6.94 0.165 c -0.261 0.062 -0.612 -0.021 -0.851 -0.161 c -1.082 -0.634 -2.164 -1.25 -3.412 -1.496 c -0.965 -0.188 -1.049 -0.14 -1.305 0.793 C 7.816 9.77 7.784 10.947 8.113 12.13 c 0.047 0.172 -0.002 0.448 -0.117 0.575 c -2.557 2.853 -1.631 8.244 0.092 10.309 c 1.34 1.604 3.12 2.326 5.096 2.701 c 0.345 0.064 0.688 0.113 1.033 0.173 c -0.296 0.77 -0.562 1.497 -0.863 2.212 c -0.059 0.138 -0.246 0.254 -0.399 0.312 c -1.938 0.752 -3.604 0.199 -4.713 -1.56 c -0.593 -0.938 -1.354 -1.639 -2.488 -1.842 c -0.036 -0.007 -0.073 -0.026 -0.106 -0.021 c -0.305 0.08 -0.607 0.164 -0.911 0.246 c 0.171 0.238 0.292 0.558 0.521 0.701 c 0.961 0.608 1.586 1.475 1.999 2.498 c 0.649 1.604 1.909 2.319 3.546 2.459 c 0.799 0.065 1.606 0.01 2.481 0.01 c 0 0.996 0.036 2.133 -0.015 3.265 c -0.026 0.61 -0.639 0.854 -1.373 0.604 c -1.947 -0.666 -3.752 -1.621 -5.311 -2.963 C 0.956 26.96 -1.214 20.83 0.657 13.655 C 2.522 6.503 7.383 2.116 14.651 0.739 C 24.708 -1.163 34.235 6.161 35.233 16.37 C 36.021 24.418 31.284 31.949 23.71 34.689 Z M 14.229 25.85 c -0.006 0.014 -0.01 0.024 -0.016 0.038 c 0.018 0.003 0.036 0.006 0.055 0.009 C 14.282 25.898 14.294 25.923 14.229 25.85 Z M 9.679 29.031 c 0.157 0.097 0.307 0.22 0.477 0.273 c 0.062 0.02 0.177 -0.121 0.38 -0.271 c -0.282 -0.107 -0.448 -0.201 -0.623 -0.225 C 9.845 28.8 9.757 28.953 9.679 29.031 Z M 11.112 29.277 c 0.023 0.105 0.232 0.236 0.355 0.234 c 0.119 -0.002 0.235 -0.16 0.354 -0.25 c -0.108 -0.099 -0.216 -0.195 -0.548 -0.494 C 11.201 28.975 11.082 29.143 11.112 29.277 Z M 12.87 28.854 c -0.148 0.035 -0.273 0.172 -0.408 0.266 c 0.079 0.1 0.158 0.193 0.285 0.35 c 0.175 -0.16 0.294 -0.271 0.414 -0.379 C 13.061 29.004 12.944 28.836 12.87 28.854 Z M 8.512 28.261 c 0.082 0.155 0.209 0.289 0.381 0.508 c 0.115 -0.188 0.24 -0.332 0.218 -0.361 c -0.109 -0.143 -0.257 -0.26 -0.403 -0.367 C 8.698 28.033 8.495 28.227 8.512 28.261 Z" data-original="#000000" data-old_color="#dbc0da" fill="#dbc0da"/>
</g></g> </svg>
