<?xml version="1.0"?>
<svg xmlns="http://www.w3.org/2000/svg" xmlns:xlink="http://www.w3.org/1999/xlink" class="" id="Capa_1" style="enable-background:new 0 0 49.652 49.652;" viewBox="0 0 49.652 49.652" x="0px" y="0px" width="512px" height="512px" version="1.1" xml:space="preserve"><g><g>
	<g>
		<g>
			<path class="active-path" d="M 29.35 21.298 c -2.125 0 -3.074 1.168 -3.605 1.988 v -1.704 h -4.002 c 0.052 1.128 0 12.041 0 12.041 h 4.002 v -6.727 c 0 -0.359 0.023 -0.72 0.131 -0.977 c 0.29 -0.72 0.948 -1.465 2.054 -1.465 c 1.448 0 2.027 1.104 2.027 2.724 v 6.442 h 4.002 h 0.001 v -6.905 C 33.958 23.019 31.983 21.298 29.35 21.298 Z M 25.742 23.328 h -0.025 c 0.008 -0.014 0.02 -0.027 0.025 -0.041 V 23.328 Z" data-original="#000000" data-old_color="#dbc0da" fill="#dbc0da"/>
			<rect class="active-path" x="15.523" y="21.582" width="4.002" height="12.041" data-original="#000000" data-old_color="#dbc0da" fill="#dbc0da"/>
			<path class="active-path" d="M 24.826 0 C 11.137 0 0 11.137 0 24.826 c 0 13.688 11.137 24.826 24.826 24.826 c 13.688 0 24.826 -11.138 24.826 -24.826 C 49.652 11.137 38.516 0 24.826 0 Z M 37.991 36.055 c 0 1.056 -0.876 1.91 -1.959 1.91 H 13.451 c -1.08 0 -1.957 -0.854 -1.957 -1.91 V 13.211 c 0 -1.055 0.877 -1.91 1.957 -1.91 h 22.581 c 1.082 0 1.959 0.856 1.959 1.91 V 36.055 Z" data-original="#000000" data-old_color="#dbc0da" fill="#dbc0da"/>
			<path class="active-path" d="M 17.551 15.777 c -1.368 0 -2.264 0.898 -2.264 2.08 c 0 1.155 0.869 2.08 2.211 2.08 h 0.026 c 1.396 0 2.265 -0.925 2.265 -2.08 C 19.762 16.676 18.921 15.777 17.551 15.777 Z" data-original="#000000" data-old_color="#dbc0da" fill="#dbc0da"/>
		</g>
	</g>
</g></g> </svg>
