<?xml version="1.0"?>
<svg xmlns="http://www.w3.org/2000/svg" xmlns:xlink="http://www.w3.org/1999/xlink" class="" id="Capa_1" style="enable-background:new 0 0 49.652 49.652;" viewBox="0 0 49.652 49.652" x="0px" y="0px" width="512px" height="512px" version="1.1" xml:space="preserve"><g><g>
	<g>
		<g>
			<path class="active-path" d="M 24.825 29.796 c 2.739 0 4.972 -2.229 4.972 -4.97 c 0 -1.082 -0.354 -2.081 -0.94 -2.897 c -0.903 -1.252 -2.371 -2.073 -4.029 -2.073 c -1.659 0 -3.126 0.82 -4.031 2.072 c -0.588 0.816 -0.939 1.815 -0.94 2.897 C 19.854 27.566 22.085 29.796 24.825 29.796 Z" data-original="#000000" data-old_color="#dbc0da" fill="#dbc0da"/>
			<polygon class="active-path" points="35.678,18.746 35.678,14.58 35.678,13.96 35.055,13.962 30.891,13.975 30.907,18.762" data-original="#000000" data-old_color="#dbc0da" fill="#dbc0da"/>
			<path class="active-path" d="M 24.826 0 C 11.137 0 0 11.137 0 24.826 c 0 13.688 11.137 24.826 24.826 24.826 c 13.688 0 24.826 -11.138 24.826 -24.826 C 49.652 11.137 38.516 0 24.826 0 Z M 38.945 21.929 v 11.56 c 0 3.011 -2.448 5.458 -5.457 5.458 H 16.164 c -3.01 0 -5.457 -2.447 -5.457 -5.458 v -11.56 v -5.764 c 0 -3.01 2.447 -5.457 5.457 -5.457 h 17.323 c 3.01 0 5.458 2.447 5.458 5.457 V 21.929 Z" data-original="#000000" data-old_color="#dbc0da" fill="#dbc0da"/>
			<path class="active-path" d="M 32.549 24.826 c 0 4.257 -3.464 7.723 -7.723 7.723 c -4.259 0 -7.722 -3.466 -7.722 -7.723 c 0 -1.024 0.204 -2.003 0.568 -2.897 h -4.215 v 11.56 c 0 1.494 1.213 2.704 2.706 2.704 h 17.323 c 1.491 0 2.706 -1.21 2.706 -2.704 v -11.56 h -4.217 C 32.342 22.823 32.549 23.802 32.549 24.826 Z" data-original="#000000" data-old_color="#dbc0da" fill="#dbc0da"/>
		</g>
	</g>
</g></g> </svg>
